<?xml version="1.0" encoding="UTF-8" standalone="no"?>
<!-- Created with Inkscape (http://www.inkscape.org/) -->

<svg
   xmlns:ns0="http://www.iki.fi/pav/software/textext/"
   xmlns:osb="http://www.openswatchbook.org/uri/2009/osb"
   xmlns:dc="http://purl.org/dc/elements/1.1/"
   xmlns:cc="http://creativecommons.org/ns#"
   xmlns:rdf="http://www.w3.org/1999/02/22-rdf-syntax-ns#"
   xmlns:svg="http://www.w3.org/2000/svg"
   xmlns="http://www.w3.org/2000/svg"
   xmlns:sodipodi="http://sodipodi.sourceforge.net/DTD/sodipodi-0.dtd"
   xmlns:inkscape="http://www.inkscape.org/namespaces/inkscape"
   inkscape:version="0.48.4 r9939"
   version="1.1"
   id="svg2"
   height="1052.3622047"
   width="744.09448819"
   sodipodi:docname="jumps.png">
  <sodipodi:namedview
     id="base"
     pagecolor="#ffffff"
     bordercolor="#666666"
     borderopacity="1.0"
     inkscape:pageopacity="0.0"
     inkscape:pageshadow="2"
     inkscape:zoom="1.4"
     inkscape:cx="321.25417"
     inkscape:cy="733.52778"
     inkscape:document-units="px"
     inkscape:current-layer="svg2"
     showgrid="false"
     inkscape:window-width="1855"
     inkscape:window-height="1176"
     inkscape:window-x="65"
     inkscape:window-y="24"
     inkscape:window-maximized="1" />
  <defs
     id="defs4">
    <marker
       inkscape:stockid="Arrow1Lstart"
       orient="auto"
       refY="0.0"
       refX="0.0"
       id="Arrow1Lstart"
       style="overflow:visible">
      <path
         id="path5384"
         d="M 0.0,0.0 L 5.0,-5.0 L -12.5,0.0 L 5.0,5.0 L 0.0,0.0 z "
         style="fill-rule:evenodd;stroke:#000000;stroke-width:1.0pt"
         transform="scale(0.8) translate(12.5,0)" />
    </marker>
    <marker
       inkscape:stockid="Arrow1Lend"
       orient="auto"
       refY="0.0"
       refX="0.0"
       id="Arrow1Lend"
       style="overflow:visible;">
      <path
         id="path5387"
         d="M 0.0,0.0 L 5.0,-5.0 L -12.5,0.0 L 5.0,5.0 L 0.0,0.0 z "
         style="fill-rule:evenodd;stroke:#000000;stroke-width:1.0pt;"
         transform="scale(0.8) rotate(180) translate(12.5,0)" />
    </marker>
    <linearGradient
       id="linearGradient5189"
       osb:paint="solid">
      <stop
         style="stop-color:#000000;stop-opacity:1;"
         offset="0"
         id="stop5191" />
    </linearGradient>
  </defs>
  <metadata
     id="metadata7">
    <rdf:RDF>
      <cc:Work
         rdf:about="">
        <dc:format>image/svg+xml</dc:format>
        <dc:type
           rdf:resource="http://purl.org/dc/dcmitype/StillImage" />
        <dc:title></dc:title>
      </cc:Work>
    </rdf:RDF>
  </metadata>
  <g
     inkscape:label="Layer 1"
     inkscape:groupmode="layer"
     id="layer1">
    <path
       transform="translate(-50.142447,235.57095)"
       sodipodi:type="arc"
       style="fill:#0000ff;fill-opacity:1;stroke:#0000ff;stroke-width:2;stroke-miterlimit:4;stroke-opacity:1;stroke-dasharray:none;stroke-dashoffset:0"
       id="path5225-9"
       sodipodi:cx="204.28572"
       sodipodi:cy="156.6479"
       sodipodi:rx="2.1428571"
       sodipodi:ry="2.1428571"
       d="m 202.19805,156.16473 a 2.1428571,2.1428571 0 1 1 -0.008,0.0371"
       sodipodi:start="3.3690307"
       sodipodi:end="9.6344636"
       sodipodi:open="true" />
    <path
       transform="translate(19.857553,235.57095)"
       sodipodi:type="arc"
       style="fill:#0000ff;fill-opacity:1;stroke:#0000ff;stroke-width:2;stroke-miterlimit:4;stroke-opacity:1;stroke-dasharray:none;stroke-dashoffset:0"
       id="path5225-2"
       sodipodi:cx="204.28572"
       sodipodi:cy="156.6479"
       sodipodi:rx="2.1428571"
       sodipodi:ry="2.1428571"
       d="m 202.19805,156.16473 a 2.1428571,2.1428571 0 1 1 -0.008,0.0371"
       sodipodi:start="3.3690307"
       sodipodi:end="9.6344636"
       sodipodi:open="true" />
    <path
       transform="translate(89.857553,235.57095)"
       sodipodi:type="arc"
       style="fill:#0000ff;fill-opacity:1;stroke:#0000ff;stroke-width:2;stroke-miterlimit:4;stroke-opacity:1;stroke-dasharray:none;stroke-dashoffset:0"
       id="path5225-96"
       sodipodi:cx="204.28572"
       sodipodi:cy="156.6479"
       sodipodi:rx="2.1428571"
       sodipodi:ry="2.1428571"
       d="m 202.19805,156.16473 a 2.1428571,2.1428571 0 1 1 -0.008,0.0371"
       sodipodi:start="3.3690307"
       sodipodi:end="9.6344636"
       sodipodi:open="true" />
    <path
       transform="translate(159.85755,235.57095)"
       sodipodi:type="arc"
       style="fill:#0000ff;fill-opacity:1;stroke:#0000ff;stroke-width:2;stroke-miterlimit:4;stroke-opacity:1;stroke-dasharray:none;stroke-dashoffset:0"
       id="path5225-0"
       sodipodi:cx="204.28572"
       sodipodi:cy="156.6479"
       sodipodi:rx="2.1428571"
       sodipodi:ry="2.1428571"
       d="m 202.19805,156.16473 a 2.1428571,2.1428571 0 1 1 -0.008,0.0371"
       sodipodi:start="3.3690307"
       sodipodi:end="9.6344636"
       sodipodi:open="true" />
    <path
       transform="translate(229.85755,235.57095)"
       sodipodi:type="arc"
       style="fill:#0000ff;fill-opacity:1;stroke:#0000ff;stroke-width:2;stroke-miterlimit:4;stroke-opacity:1;stroke-dasharray:none;stroke-dashoffset:0"
       id="path5225-6"
       sodipodi:cx="204.28572"
       sodipodi:cy="156.6479"
       sodipodi:rx="2.1428571"
       sodipodi:ry="2.1428571"
       d="m 202.19805,156.16473 a 2.1428571,2.1428571 0 1 1 -0.008,0.0371"
       sodipodi:start="3.3690307"
       sodipodi:end="9.6344636"
       sodipodi:open="true" />
    <path
       transform="translate(-50.142447,164.85695)"
       sodipodi:type="arc"
       style="fill:#0000ff;fill-opacity:1;stroke:#0000ff;stroke-width:2;stroke-miterlimit:4;stroke-opacity:1;stroke-dasharray:none;stroke-dashoffset:0"
       id="path5225-9-4"
       sodipodi:cx="204.28572"
       sodipodi:cy="156.6479"
       sodipodi:rx="2.1428571"
       sodipodi:ry="2.1428571"
       d="m 202.19805,156.16473 a 2.1428571,2.1428571 0 1 1 -0.008,0.0371"
       sodipodi:start="3.3690307"
       sodipodi:end="9.6344636"
       sodipodi:open="true" />
    <path
       transform="translate(19.857553,164.85695)"
       sodipodi:type="arc"
       style="fill:#0000ff;fill-opacity:1;stroke:#0000ff;stroke-width:2;stroke-miterlimit:4;stroke-opacity:1;stroke-dasharray:none;stroke-dashoffset:0"
       id="path5225-2-6"
       sodipodi:cx="204.28572"
       sodipodi:cy="156.6479"
       sodipodi:rx="2.1428571"
       sodipodi:ry="2.1428571"
       d="m 202.19805,156.16473 a 2.1428571,2.1428571 0 1 1 -0.008,0.0371"
       sodipodi:start="3.3690307"
       sodipodi:end="9.6344636"
       sodipodi:open="true" />
    <path
       transform="translate(89.857556,164.85695)"
       sodipodi:type="arc"
       style="fill:#0000ff;fill-opacity:1;stroke:#0000ff;stroke-width:2;stroke-miterlimit:4;stroke-opacity:1;stroke-dasharray:none;stroke-dashoffset:0"
       id="path5225-96-6"
       sodipodi:cx="204.28572"
       sodipodi:cy="156.6479"
       sodipodi:rx="2.1428571"
       sodipodi:ry="2.1428571"
       d="m 202.19805,156.16473 a 2.1428571,2.1428571 0 1 1 -0.008,0.0371"
       sodipodi:start="3.3690307"
       sodipodi:end="9.6344636"
       sodipodi:open="true" />
    <path
       transform="translate(159.85756,164.85695)"
       sodipodi:type="arc"
       style="fill:#0000ff;fill-opacity:1;stroke:#0000ff;stroke-width:2;stroke-miterlimit:4;stroke-opacity:1;stroke-dasharray:none;stroke-dashoffset:0"
       id="path5225-0-3"
       sodipodi:cx="204.28572"
       sodipodi:cy="156.6479"
       sodipodi:rx="2.1428571"
       sodipodi:ry="2.1428571"
       d="m 202.19805,156.16473 a 2.1428571,2.1428571 0 1 1 -0.008,0.0371"
       sodipodi:start="3.3690307"
       sodipodi:end="9.6344636"
       sodipodi:open="true" />
    <path
       transform="translate(229.85756,164.85695)"
       sodipodi:type="arc"
       style="fill:#0000ff;fill-opacity:1;stroke:#0000ff;stroke-width:2;stroke-miterlimit:4;stroke-opacity:1;stroke-dasharray:none;stroke-dashoffset:0"
       id="path5225-6-9"
       sodipodi:cx="204.28572"
       sodipodi:cy="156.6479"
       sodipodi:rx="2.1428571"
       sodipodi:ry="2.1428571"
       d="m 202.19805,156.16473 a 2.1428571,2.1428571 0 1 1 -0.008,0.0371"
       sodipodi:start="3.3690307"
       sodipodi:end="9.6344636"
       sodipodi:open="true" />
    <path
       transform="translate(-50.142447,95.570946)"
       sodipodi:type="arc"
       style="fill:#0000ff;fill-opacity:1;stroke:#0000ff;stroke-width:2;stroke-miterlimit:4;stroke-opacity:1;stroke-dasharray:none;stroke-dashoffset:0"
       id="path5225-9-9"
       sodipodi:cx="204.28572"
       sodipodi:cy="156.6479"
       sodipodi:rx="2.1428571"
       sodipodi:ry="2.1428571"
       d="m 202.19805,156.16473 a 2.1428571,2.1428571 0 1 1 -0.008,0.0371"
       sodipodi:start="3.3690307"
       sodipodi:end="9.6344636"
       sodipodi:open="true" />
    <path
       transform="translate(19.857553,95.570946)"
       sodipodi:type="arc"
       style="fill:#0000ff;fill-opacity:1;stroke:#0000ff;stroke-width:2;stroke-miterlimit:4;stroke-opacity:1;stroke-dasharray:none;stroke-dashoffset:0"
       id="path5225-2-5"
       sodipodi:cx="204.28572"
       sodipodi:cy="156.6479"
       sodipodi:rx="2.1428571"
       sodipodi:ry="2.1428571"
       d="m 202.19805,156.16473 a 2.1428571,2.1428571 0 1 1 -0.008,0.0371"
       sodipodi:start="3.3690307"
       sodipodi:end="9.6344636"
       sodipodi:open="true" />
    <path
       transform="translate(89.857556,95.570946)"
       sodipodi:type="arc"
       style="fill:#0000ff;fill-opacity:1;stroke:#0000ff;stroke-width:2;stroke-miterlimit:4;stroke-opacity:1;stroke-dasharray:none;stroke-dashoffset:0"
       id="path5225-96-2"
       sodipodi:cx="204.28572"
       sodipodi:cy="156.6479"
       sodipodi:rx="2.1428571"
       sodipodi:ry="2.1428571"
       d="m 202.19805,156.16473 a 2.1428571,2.1428571 0 1 1 -0.008,0.0371"
       sodipodi:start="3.3690307"
       sodipodi:end="9.6344636"
       sodipodi:open="true" />
    <path
       transform="translate(159.85755,95.570946)"
       sodipodi:type="arc"
       style="fill:#0000ff;fill-opacity:1;stroke:#0000ff;stroke-width:2;stroke-miterlimit:4;stroke-opacity:1;stroke-dasharray:none;stroke-dashoffset:0"
       id="path5225-0-1"
       sodipodi:cx="204.28572"
       sodipodi:cy="156.6479"
       sodipodi:rx="2.1428571"
       sodipodi:ry="2.1428571"
       d="m 202.19805,156.16473 a 2.1428571,2.1428571 0 1 1 -0.008,0.0371"
       sodipodi:start="3.3690307"
       sodipodi:end="9.6344636"
       sodipodi:open="true" />
    <path
       transform="translate(229.85755,95.570946)"
       sodipodi:type="arc"
       style="fill:#0000ff;fill-opacity:1;stroke:#0000ff;stroke-width:2;stroke-miterlimit:4;stroke-opacity:1;stroke-dasharray:none;stroke-dashoffset:0"
       id="path5225-6-3"
       sodipodi:cx="204.28572"
       sodipodi:cy="156.6479"
       sodipodi:rx="2.1428571"
       sodipodi:ry="2.1428571"
       d="m 202.19805,156.16473 a 2.1428571,2.1428571 0 1 1 -0.008,0.0371"
       sodipodi:start="3.3690307"
       sodipodi:end="9.6344636"
       sodipodi:open="true" />
    <path
       transform="translate(-50.142447,25.570946)"
       sodipodi:type="arc"
       style="fill:#0000ff;fill-opacity:1;stroke:#0000ff;stroke-width:2;stroke-miterlimit:4;stroke-opacity:1;stroke-dasharray:none;stroke-dashoffset:0"
       id="path5225-9-0"
       sodipodi:cx="204.28572"
       sodipodi:cy="156.6479"
       sodipodi:rx="2.1428571"
       sodipodi:ry="2.1428571"
       d="m 202.19805,156.16473 a 2.1428571,2.1428571 0 1 1 -0.008,0.0371"
       sodipodi:start="3.3690307"
       sodipodi:end="9.6344636"
       sodipodi:open="true" />
    <path
       transform="translate(19.857553,25.570946)"
       sodipodi:type="arc"
       style="fill:#0000ff;fill-opacity:1;stroke:#0000ff;stroke-width:2;stroke-miterlimit:4;stroke-opacity:1;stroke-dasharray:none;stroke-dashoffset:0"
       id="path5225-2-9"
       sodipodi:cx="204.28572"
       sodipodi:cy="156.6479"
       sodipodi:rx="2.1428571"
       sodipodi:ry="2.1428571"
       d="m 202.19805,156.16473 a 2.1428571,2.1428571 0 1 1 -0.008,0.0371"
       sodipodi:start="3.3690307"
       sodipodi:end="9.6344636"
       sodipodi:open="true" />
    <path
       transform="translate(89.857556,25.570946)"
       sodipodi:type="arc"
       style="fill:#0000ff;fill-opacity:1;stroke:#0000ff;stroke-width:2;stroke-miterlimit:4;stroke-opacity:1;stroke-dasharray:none;stroke-dashoffset:0"
       id="path5225-96-9"
       sodipodi:cx="204.28572"
       sodipodi:cy="156.6479"
       sodipodi:rx="2.1428571"
       sodipodi:ry="2.1428571"
       d="m 202.19805,156.16473 a 2.1428571,2.1428571 0 1 1 -0.008,0.0371"
       sodipodi:start="3.3690307"
       sodipodi:end="9.6344636"
       sodipodi:open="true" />
    <path
       transform="translate(159.85755,25.570946)"
       sodipodi:type="arc"
       style="fill:#0000ff;fill-opacity:1;stroke:#0000ff;stroke-width:2;stroke-miterlimit:4;stroke-opacity:1;stroke-dasharray:none;stroke-dashoffset:0"
       id="path5225-0-13"
       sodipodi:cx="204.28572"
       sodipodi:cy="156.6479"
       sodipodi:rx="2.1428571"
       sodipodi:ry="2.1428571"
       d="m 202.19805,156.16473 a 2.1428571,2.1428571 0 1 1 -0.008,0.0371"
       sodipodi:start="3.3690307"
       sodipodi:end="9.6344636"
       sodipodi:open="true" />
    <path
       transform="translate(229.85755,25.570946)"
       sodipodi:type="arc"
       style="fill:#0000ff;fill-opacity:1;stroke:#0000ff;stroke-width:2;stroke-miterlimit:4;stroke-opacity:1;stroke-dasharray:none;stroke-dashoffset:0"
       id="path5225-6-4"
       sodipodi:cx="204.28572"
       sodipodi:cy="156.6479"
       sodipodi:rx="2.1428571"
       sodipodi:ry="2.1428571"
       d="m 202.19805,156.16473 a 2.1428571,2.1428571 0 1 1 -0.008,0.0371"
       sodipodi:start="3.3690307"
       sodipodi:end="9.6344636"
       sodipodi:open="true" />
    <path
       style="fill:none;stroke:#000000;stroke-width:1.01828932999999999px;stroke-linecap:butt;stroke-linejoin:miter;stroke-opacity:1;marker-start:url(#Arrow1Lstart);marker-end:url(#Arrow1Lend)"
       d="m 154.50891,92.371329 0,299.981711 308.55338,0"
       id="path6513"
       inkscape:connector-curvature="0" />
    <path
       transform="translate(-50.142447,-45.286054)"
       sodipodi:type="arc"
       style="fill:#0000ff;fill-opacity:1;stroke:#0000ff;stroke-width:2;stroke-miterlimit:4;stroke-opacity:1;stroke-dasharray:none;stroke-dashoffset:0"
       id="path5225-9-0-5"
       sodipodi:cx="204.28572"
       sodipodi:cy="156.6479"
       sodipodi:rx="2.1428571"
       sodipodi:ry="2.1428571"
       d="m 202.19805,156.16473 a 2.1428571,2.1428571 0 1 1 -0.008,0.0371"
       sodipodi:start="3.3690307"
       sodipodi:end="9.6344636"
       sodipodi:open="true" />
    <path
       transform="translate(19.857553,-45.286054)"
       sodipodi:type="arc"
       style="fill:#0000ff;fill-opacity:1;stroke:#0000ff;stroke-width:2;stroke-miterlimit:4;stroke-opacity:1;stroke-dasharray:none;stroke-dashoffset:0"
       id="path5225-2-9-8"
       sodipodi:cx="204.28572"
       sodipodi:cy="156.6479"
       sodipodi:rx="2.1428571"
       sodipodi:ry="2.1428571"
       d="m 202.19805,156.16473 a 2.1428571,2.1428571 0 1 1 -0.008,0.0371"
       sodipodi:start="3.3690307"
       sodipodi:end="9.6344636"
       sodipodi:open="true" />
    <path
       transform="translate(89.857559,-45.286054)"
       sodipodi:type="arc"
       style="fill:#0000ff;fill-opacity:1;stroke:#0000ff;stroke-width:2;stroke-miterlimit:4;stroke-opacity:1;stroke-dasharray:none;stroke-dashoffset:0"
       id="path5225-96-9-5"
       sodipodi:cx="204.28572"
       sodipodi:cy="156.6479"
       sodipodi:rx="2.1428571"
       sodipodi:ry="2.1428571"
       d="m 202.19805,156.16473 a 2.1428571,2.1428571 0 1 1 -0.008,0.0371"
       sodipodi:start="3.3690307"
       sodipodi:end="9.6344636"
       sodipodi:open="true" />
    <path
       transform="translate(159.85755,-45.286054)"
       sodipodi:type="arc"
       style="fill:#0000ff;fill-opacity:1;stroke:#0000ff;stroke-width:2;stroke-miterlimit:4;stroke-opacity:1;stroke-dasharray:none;stroke-dashoffset:0"
       id="path5225-0-13-7"
       sodipodi:cx="204.28572"
       sodipodi:cy="156.6479"
       sodipodi:rx="2.1428571"
       sodipodi:ry="2.1428571"
       d="m 202.19805,156.16473 a 2.1428571,2.1428571 0 1 1 -0.008,0.0371"
       sodipodi:start="3.3690307"
       sodipodi:end="9.6344636"
       sodipodi:open="true" />
    <path
       transform="translate(229.85756,-45.286054)"
       sodipodi:type="arc"
       style="fill:#0000ff;fill-opacity:1;stroke:#0000ff;stroke-width:2;stroke-miterlimit:4;stroke-opacity:1;stroke-dasharray:none;stroke-dashoffset:0"
       id="path5225-6-4-3"
       sodipodi:cx="204.28572"
       sodipodi:cy="156.6479"
       sodipodi:rx="2.1428571"
       sodipodi:ry="2.1428571"
       d="m 202.19805,156.16473 a 2.1428571,2.1428571 0 1 1 -0.008,0.0371"
       sodipodi:start="3.3690307"
       sodipodi:end="9.6344636"
       sodipodi:open="true" />
    <path
       style="fill:none;stroke:#000000;stroke-width:1px;stroke-linecap:butt;stroke-linejoin:miter;stroke-opacity:1;marker-end:url(#Arrow1Lend);"
       d="m 293.57143,181.6479 -70,-70"
       id="path6913"
       inkscape:connector-curvature="0" />
    <path
       style="fill:none;stroke:#000000;stroke-width:1px;stroke-linecap:butt;stroke-linejoin:miter;stroke-opacity:1;marker-end:url(#Arrow1Lend);marker-start:url(#Arrow1Lstart)"
       d="m 364.28571,112.36218 -70,70 69.28572,137.85714"
       id="path7287"
       inkscape:connector-curvature="0" />
    <g
       style="font-style:normal;font-variant:normal;font-weight:normal;font-stretch:normal;letter-spacing:normal;word-spacing:normal;text-anchor:start;fill:none;stroke:#000000;stroke-linecap:butt;stroke-linejoin:miter;stroke-miterlimit:10.43299961;stroke-opacity:1;stroke-dasharray:none;stroke-dashoffset:0"
       id="g6337"
       transform="matrix(1.1490669,1.1536833,1.1536833,-1.1490669,-800.82964,624.00522)"
       xml:space="preserve"
       stroke-miterlimit="10.433"
       font-style="normal"
       font-variant="normal"
       font-weight="normal"
       font-stretch="normal"
       font-size-adjust="none"
       letter-spacing="normal"
       word-spacing="normal"
       ns0:text="$2B \\leftharpoonup A+B$"
       ns0:preamble=""><path
         style="fill:#000000;stroke-width:0"
         inkscape:connector-curvature="0"
         d="m 224.7,658 1.05,1.02 c 1.55,1.37 2.15,1.91 2.15,2.9 0,1.14 -0.9,1.93 -2.11,1.93 -1.12,0 -1.86,-0.91 -1.86,-1.8 0,-0.55 0.5,-0.55 0.53,-0.55 0.17,0 0.51,0.12 0.51,0.52 0,0.26 -0.18,0.52 -0.52,0.52 -0.08,0 -0.1,0 -0.13,-0.01 0.23,0.64 0.76,1.01 1.34,1.01 0.91,0 1.33,-0.8 1.33,-1.62 0,-0.79 -0.49,-1.58 -1.04,-2.19 l -1.91,-2.13 c -0.11,-0.11 -0.11,-0.13 -0.11,-0.37 h 3.69 l 0.28,1.73 h -0.25 c -0.05,-0.3 -0.12,-0.73 -0.22,-0.88 C 227.36,658 226.71,658 226.49,658 z"
         id="path6339" /><path
         style="fill:#000000;stroke-width:0"
         inkscape:connector-curvature="0"
         d="m 230.01,658.01 -0.01,-0.04 -0.01,-0.03 -0.01,-0.03 -0.01,-0.03 -0.01,-0.03 -0.01,-0.03 -0.01,-0.02 -0.01,-0.03 -0.01,-0.02 -0.01,-0.02 -0.01,-0.02 -0.02,-0.02 -0.01,-0.02 -0.02,-0.01 -0.02,-0.02 -0.02,-0.01 -0.02,-0.01 -0.03,-0.01 -0.03,-0.01 -0.03,-0.01 -0.03,-0.01 -0.01,0 -0.02,-0.01 -0.02,0 -0.02,0 -0.02,-0.01 -0.02,0 -0.02,0 -0.03,0 -0.02,-0.01 -0.02,0 -0.03,0 -0.03,0 -0.02,0 -0.03,0 -0.03,0 -0.03,0 -0.03,-0.01 -0.03,0 -0.04,0 -0.03,0 -0.03,0 -0.04,0 c -0.17,0 -0.27,0 -0.27,-0.2 0,-0.11 0.09,-0.11 0.27,-0.11 h 3.55 c 1.57,0 2.75,1.18 2.75,2.15 0,0.72 -0.58,1.29 -1.55,1.4 1.04,0.19 2.08,0.93 2.08,1.87 0,0.73 -0.65,1.37 -1.85,1.37 l -0.13,-0.31 c 0.87,0 1.08,-0.58 1.08,-1.02 0,-0.87 -0.86,-1.82 -2.07,-1.82 h -1.45 l -0.06,-0.22 h 1.88 c 0.95,0 1.14,-0.73 1.14,-1.16 0,-0.98 -0.88,-1.95 -2.06,-1.95 h -1.35 c -0.14,0 -0.16,0 -0.22,0.01 -0.1,0.01 -0.13,0.02 -0.13,0.1 0,0.03 0,0.05 0.05,0.23 l 0.69,2.77 0.06,0.22 0.61,2.46 c 0.09,0.35 0.11,0.38 0.54,0.38 h 1.29 l 0.13,0.31 h -3.34 c -0.19,0 -0.29,0 -0.29,-0.2 0,-0.11 0.09,-0.11 0.28,-0.11 0.02,0 0.21,0 0.38,-0.02 0.18,-0.02 0.27,-0.03 0.27,-0.16 0,-0.04 -0.01,-0.07 -0.04,-0.19 z"
         id="path6341" /><path
         style="fill:#000000;stroke-width:0"
         inkscape:connector-curvature="0"
         d="m 248.27,659.52 0.03,0 0.04,0 0.03,0 0.02,0 0.01,0 0.02,0 0.01,0.01 0.02,0 0.01,0 0.02,0 0.01,0.01 0.01,0 0.02,0 0.01,0.01 0.01,0.01 0.01,0 0.01,0.01 0.01,0.01 0.01,0 0.01,0.01 0.01,0.01 0.01,0.01 0,0.01 0,0.01 0,0 0.01,0.01 0,0.01 0,0 0,0.01 0,0.01 0.01,0.01 0,0 0,0.01 0,0.01 0,0.01 0,0.01 c 0,0.2 -0.18,0.2 -0.36,0.2 h -7.56 c 0.36,0.3 0.61,0.54 0.89,0.94 0.47,0.62 0.69,1.27 0.69,1.34 0,0.11 -0.12,0.11 -0.19,0.11 -0.07,0 -0.11,0 -0.15,-0.03 -0.02,-0.01 -0.03,-0.02 -0.11,-0.2 -0.48,-1.18 -1.26,-1.82 -1.95,-2.23 -0.09,-0.06 -0.1,-0.07 -0.1,-0.18 0,-0.15 0.05,-0.15 0.27,-0.15 z"
         id="path6343" /><path
         style="fill:#000000;stroke-width:0"
         inkscape:connector-curvature="0"
         d="m 253.75,658.38 -0.04,-0.06 -0.03,-0.06 -0.04,-0.06 -0.04,-0.05 -0.04,-0.05 -0.03,-0.04 -0.04,-0.05 -0.04,-0.04 -0.03,-0.04 -0.04,-0.04 -0.04,-0.03 -0.04,-0.03 -0.03,-0.03 -0.04,-0.03 -0.04,-0.02 -0.04,-0.03 -0.03,-0.02 -0.04,-0.02 -0.04,-0.02 -0.04,-0.02 -0.04,-0.01 -0.04,-0.01 -0.03,-0.02 -0.04,-0.01 -0.04,-0.01 -0.04,-0.01 -0.04,0 -0.04,-0.01 -0.08,-0.01 -0.08,-0.01 c -0.12,-0.01 -0.21,-0.01 -0.21,-0.2 0,-0.06 0.05,-0.11 0.13,-0.11 0.27,0 0.57,0.04 0.85,0.04 0.33,0 0.68,-0.04 1,-0.04 0.06,0 0.19,0 0.19,0.19 0,0.11 -0.09,0.12 -0.16,0.12 -0.23,0.02 -0.47,0.1 -0.47,0.35 0,0.12 0.06,0.23 0.14,0.37 l 0.76,1.27 h 2.49 l -0.03,0.31 h -2.28 l 1.96,3.28 0.32,-3.28 0.03,-0.31 c 0.02,-0.21 0.16,-1.56 0.16,-1.66 0,-0.3 -0.52,-0.33 -0.71,-0.33 -0.14,0 -0.24,0 -0.24,-0.2 0,-0.11 0.12,-0.11 0.14,-0.11 0.4,0 0.83,0.04 1.24,0.04 0.25,0 0.87,-0.04 1.12,-0.04 0.06,0 0.18,0 0.18,0.2 0,0.11 -0.1,0.11 -0.23,0.11 -0.61,0 -0.61,0.07 -0.64,0.36 l -0.61,6.21 c -0.02,0.2 -0.02,0.24 -0.19,0.24 -0.16,0 -0.2,-0.07 -0.26,-0.17 z"
         id="path6345" /><path
         style="fill:#000000;stroke-width:0"
         inkscape:connector-curvature="0"
         d="m 265.72,659.52 h 2.78 c 0.14,0 0.33,0 0.33,0.2 0,0.2 -0.19,0.2 -0.33,0.2 h -2.78 v 2.78 c 0,0.14 0,0.33 -0.2,0.33 -0.2,0 -0.2,-0.19 -0.2,-0.33 v -2.78 h -2.78 c -0.14,0 -0.33,0 -0.33,-0.2 0,-0.2 0.19,-0.2 0.33,-0.2 h 2.78 v -2.78 c 0,-0.14 0,-0.33 0.2,-0.33 0.2,0 0.2,0.19 0.2,0.33 z"
         id="path6347" /><path
         style="fill:#000000;stroke-width:0"
         inkscape:connector-curvature="0"
         d="m 273.21,658.01 -0.01,-0.04 -0.01,-0.03 -0.01,-0.03 -0.01,-0.03 -0.01,-0.03 -0.01,-0.03 0,-0.02 -0.02,-0.03 -0.01,-0.02 -0.01,-0.02 -0.01,-0.02 -0.02,-0.02 -0.01,-0.02 -0.02,-0.01 -0.02,-0.02 -0.02,-0.01 -0.02,-0.01 -0.02,-0.01 -0.03,-0.01 -0.03,-0.01 -0.03,-0.01 -0.02,0 -0.02,-0.01 -0.02,0 -0.02,0 -0.02,-0.01 -0.02,0 -0.02,0 -0.02,0 -0.03,-0.01 -0.02,0 -0.03,0 -0.02,0 -0.03,0 -0.03,0 -0.03,0 -0.03,0 -0.03,-0.01 -0.03,0 -0.03,0 -0.04,0 -0.03,0 -0.04,0 c -0.17,0 -0.27,0 -0.27,-0.2 0,-0.11 0.09,-0.11 0.27,-0.11 h 3.55 c 1.58,0 2.75,1.18 2.75,2.15 0,0.72 -0.58,1.29 -1.54,1.4 1.03,0.19 2.08,0.93 2.08,1.87 0,0.73 -0.66,1.37 -1.85,1.37 l -0.14,-0.31 c 0.87,0 1.08,-0.58 1.08,-1.02 0,-0.87 -0.85,-1.82 -2.07,-1.82 h -1.45 l -0.06,-0.22 h 1.88 c 0.96,0 1.14,-0.73 1.14,-1.16 0,-0.98 -0.88,-1.95 -2.05,-1.95 h -1.36 c -0.14,0 -0.16,0 -0.22,0.01 -0.1,0.01 -0.13,0.02 -0.13,0.1 0,0.03 0,0.05 0.05,0.23 l 0.69,2.77 0.06,0.22 0.62,2.46 c 0.09,0.35 0.11,0.38 0.53,0.38 h 1.29 l 0.14,0.31 h -3.35 c -0.18,0 -0.28,0 -0.28,-0.2 0,-0.11 0.08,-0.11 0.27,-0.11 0.02,0 0.21,0 0.38,-0.02 0.18,-0.02 0.27,-0.03 0.27,-0.16 0,-0.04 -0.01,-0.07 -0.04,-0.19 z"
         id="path6349" /></g>    <g
       style="font-style:normal;font-variant:normal;font-weight:normal;font-stretch:normal;letter-spacing:normal;word-spacing:normal;text-anchor:start;fill:none;stroke:#000000;stroke-linecap:butt;stroke-linejoin:miter;stroke-miterlimit:10.43299961;stroke-opacity:1;stroke-dasharray:none;stroke-dashoffset:0"
       ns0:preamble=""
       ns0:text="$\\emptyset \\rightharpoonup A+B$"
       word-spacing="normal"
       letter-spacing="normal"
       font-size-adjust="none"
       font-stretch="normal"
       font-weight="normal"
       font-variant="normal"
       font-style="normal"
       stroke-miterlimit="10.433"
       xml:space="preserve"
       transform="matrix(1.1760374,-1.147154,-1.147154,-1.1760374,787.08155,1204.0123)"
       id="g6847"><path
         id="path6849"
         d="m 227.29,664.71 0,0.01 0,0.01 0,0.01 0,0.01 0,0 -0.01,0.01 0,0.01 0,0.01 -0.01,0.01 0,0.01 0,0.01 -0.01,0.01 0,0 -0.01,0.01 -0.01,0.01 0,0.01 -0.01,0 -0.01,0.01 0,0 -0.01,0.01 -0.01,0.01 -0.01,0 -0.01,0 -0.01,0.01 0,0 -0.01,0.01 -0.01,0 -0.01,0 -0.01,0 -0.01,0 -0.02,0 -0.01,0 c -0.15,0 -0.18,-0.11 -0.24,-0.31 -0.11,-0.4 -0.01,-0.05 -0.12,-0.45 -0.12,0.06 -0.44,0.21 -0.81,0.21 v -0.22 c 0.2,0 0.46,-0.06 0.72,-0.28 l -1.74,-5.92 c -0.33,0.69 -0.33,1.91 -0.33,2.85 0,0.81 0,1.49 0.14,2.13 0.19,0.92 0.76,1.22 1.21,1.22 v 0.22 c -0.57,0 -1.21,-0.3 -1.58,-1.07 -0.39,-0.8 -0.44,-1.69 -0.44,-2.62 0,-0.62 0,-2.41 0.86,-3.19 -0.22,-0.76 -0.22,-0.78 -0.22,-0.81 0,-0.11 0.08,-0.2 0.2,-0.2 0.14,0 0.17,0.1 0.23,0.32 0.12,0.39 0.02,0.05 0.13,0.44 0.24,-0.12 0.54,-0.2 0.81,-0.2 v 0.21 c -0.23,0 -0.47,0.08 -0.71,0.29 l 1.73,5.93 c 0.33,-0.57 0.33,-1.73 0.33,-2.67 0,-0.72 0,-1.46 -0.12,-2.12 -0.18,-1.05 -0.7,-1.43 -1.23,-1.43 v -0.21 c 1.11,0 1.55,0.93 1.73,1.41 0.26,0.69 0.29,1.52 0.29,2.23 0,0.74 0,2.39 -0.87,3.21 z"
         inkscape:connector-curvature="0"
         style="fill:#000000;stroke-width:0" /><path
         id="path6851"
         d="m 240.29,659.52 0.02,0 0.02,0 0.02,0 0.02,0 0.02,0 0.01,0 0.02,0 0.01,0 0.01,0 0.02,0 0.01,0.01 0.01,0 0.01,0 0.01,0 0.01,0.01 0.01,0 0,0 0.01,0.01 0.01,0 0,0.01 0.01,0 0,0.01 0.01,0.01 0,0.01 0,0.01 0.01,0.01 0,0.01 0,0.01 0,0.01 0,0.01 0,0.01 0,0 0,0.01 0,0.01 c 0,0.09 -0.01,0.1 -0.19,0.22 -1.29,0.77 -1.76,1.89 -1.91,2.27 -0.05,0.12 -0.06,0.14 -0.21,0.14 -0.08,0 -0.19,0 -0.19,-0.11 0,-0.06 0.22,-0.71 0.68,-1.34 0.22,-0.31 0.45,-0.57 0.9,-0.94 h -7.56 c -0.18,0 -0.36,0 -0.36,-0.2 0,-0.2 0.18,-0.2 0.36,-0.2 z"
         inkscape:connector-curvature="0"
         style="fill:#000000;stroke-width:0" /><path
         id="path6853"
         d="m 245.69,658.38 -0.03,-0.06 -0.04,-0.06 -0.04,-0.06 -0.03,-0.05 -0.04,-0.05 -0.04,-0.04 -0.04,-0.05 -0.03,-0.04 -0.04,-0.04 -0.04,-0.04 -0.04,-0.03 -0.03,-0.03 -0.04,-0.03 -0.04,-0.03 -0.04,-0.02 -0.03,-0.03 -0.04,-0.02 -0.04,-0.02 -0.04,-0.02 -0.04,-0.02 -0.03,-0.01 -0.04,-0.01 -0.04,-0.02 -0.04,-0.01 -0.04,-0.01 -0.04,-0.01 -0.04,0 -0.04,-0.01 -0.08,-0.01 -0.08,-0.01 c -0.12,-0.01 -0.21,-0.01 -0.21,-0.2 0,-0.06 0.05,-0.11 0.13,-0.11 0.27,0 0.58,0.04 0.86,0.04 0.32,0 0.67,-0.04 0.99,-0.04 0.06,0 0.19,0 0.19,0.19 0,0.11 -0.09,0.12 -0.16,0.12 -0.23,0.02 -0.47,0.1 -0.47,0.35 0,0.12 0.06,0.23 0.14,0.37 l 0.76,1.27 h 2.5 l -0.03,0.31 h -2.28 l 1.96,3.28 0.32,-3.28 0.03,-0.31 c 0.02,-0.21 0.15,-1.56 0.15,-1.66 0,-0.3 -0.51,-0.33 -0.71,-0.33 -0.14,0 -0.24,0 -0.24,-0.2 0,-0.11 0.12,-0.11 0.14,-0.11 0.41,0 0.84,0.04 1.24,0.04 0.25,0 0.88,-0.04 1.13,-0.04 0.06,0 0.18,0 0.18,0.2 0,0.11 -0.1,0.11 -0.23,0.11 -0.62,0 -0.62,0.07 -0.65,0.36 l -0.61,6.21 c -0.02,0.2 -0.02,0.24 -0.19,0.24 -0.15,0 -0.19,-0.07 -0.25,-0.17 z"
         inkscape:connector-curvature="0"
         style="fill:#000000;stroke-width:0" /><path
         id="path6855"
         d="m 257.67,659.52 h 2.77 c 0.14,0 0.33,0 0.33,0.2 0,0.2 -0.19,0.2 -0.33,0.2 h -2.77 v 2.78 c 0,0.14 0,0.33 -0.2,0.33 -0.2,0 -0.2,-0.19 -0.2,-0.33 v -2.78 h -2.79 c -0.14,0 -0.33,0 -0.33,-0.2 0,-0.2 0.19,-0.2 0.33,-0.2 h 2.79 v -2.78 c 0,-0.14 0,-0.33 0.2,-0.33 0.2,0 0.2,0.19 0.2,0.33 z"
         inkscape:connector-curvature="0"
         style="fill:#000000;stroke-width:0" /><path
         id="path6857"
         d="m 265.15,658.01 -0.01,-0.04 -0.01,-0.03 -0.01,-0.03 0,-0.03 -0.01,-0.03 -0.01,-0.03 -0.01,-0.02 -0.01,-0.03 -0.01,-0.02 -0.02,-0.02 -0.01,-0.02 -0.01,-0.02 -0.02,-0.02 -0.02,-0.01 -0.01,-0.02 -0.02,-0.01 -0.03,-0.01 -0.02,-0.01 -0.03,-0.01 -0.03,-0.01 -0.03,-0.01 -0.02,0 -0.02,-0.01 -0.02,0 -0.01,0 -0.02,-0.01 -0.03,0 -0.02,0 -0.02,0 -0.02,-0.01 -0.03,0 -0.02,0 -0.03,0 -0.03,0 -0.02,0 -0.03,0 -0.03,0 -0.03,-0.01 -0.04,0 -0.03,0 -0.03,0 -0.04,0 -0.04,0 c -0.16,0 -0.26,0 -0.26,-0.2 0,-0.11 0.09,-0.11 0.26,-0.11 h 3.56 c 1.57,0 2.74,1.18 2.74,2.15 0,0.72 -0.57,1.29 -1.54,1.4 1.04,0.19 2.08,0.93 2.08,1.87 0,0.73 -0.66,1.37 -1.85,1.37 l -0.14,-0.31 c 0.88,0 1.08,-0.58 1.08,-1.02 0,-0.87 -0.85,-1.82 -2.06,-1.82 h -1.46 l -0.06,-0.22 h 1.88 c 0.96,0 1.15,-0.73 1.15,-1.16 0,-0.98 -0.89,-1.95 -2.06,-1.95 h -1.36 c -0.13,0 -0.15,0 -0.21,0.01 -0.1,0.01 -0.13,0.02 -0.13,0.1 0,0.03 0,0.05 0.05,0.23 l 0.68,2.77 0.06,0.22 0.62,2.46 c 0.09,0.35 0.11,0.38 0.54,0.38 h 1.28 l 0.14,0.31 h -3.34 c -0.19,0 -0.29,0 -0.29,-0.2 0,-0.11 0.09,-0.11 0.28,-0.11 0.02,0 0.21,0 0.38,-0.02 0.17,-0.02 0.26,-0.03 0.26,-0.16 0,-0.04 -0.01,-0.07 -0.04,-0.19 z"
         inkscape:connector-curvature="0"
         style="fill:#000000;stroke-width:0" /></g>    <g
       id="g6694"
       transform="matrix(0.81865317,1.6030618,1.6030618,-0.81865317,-925.37205,390.54337)"
       xml:space="preserve"
       stroke-miterlimit="10.433"
       font-style="normal"
       font-variant="normal"
       font-weight="normal"
       font-stretch="normal"
       font-size-adjust="none"
       letter-spacing="normal"
       word-spacing="normal"
       ns0:text="$2B \\rightharpoonup A$"
       ns0:preamble=""
       style="font-style:normal;font-variant:normal;font-weight:normal;font-stretch:normal;letter-spacing:normal;word-spacing:normal;text-anchor:start;fill:none;stroke:#000000;stroke-linecap:butt;stroke-linejoin:miter;stroke-miterlimit:10.43299961;stroke-opacity:1;stroke-dasharray:none;stroke-dashoffset:0"><path
         style="fill:#000000;stroke-width:0"
         inkscape:connector-curvature="0"
         d="m 224.7,658 1.05,1.02 c 1.55,1.37 2.15,1.91 2.15,2.9 0,1.14 -0.9,1.93 -2.11,1.93 -1.12,0 -1.86,-0.91 -1.86,-1.8 0,-0.55 0.5,-0.55 0.53,-0.55 0.17,0 0.51,0.12 0.51,0.52 0,0.26 -0.18,0.52 -0.52,0.52 -0.08,0 -0.1,0 -0.13,-0.01 0.23,0.64 0.76,1.01 1.34,1.01 0.91,0 1.33,-0.8 1.33,-1.62 0,-0.79 -0.49,-1.58 -1.04,-2.19 l -1.91,-2.13 c -0.11,-0.11 -0.11,-0.13 -0.11,-0.37 h 3.69 l 0.28,1.73 h -0.25 c -0.05,-0.3 -0.12,-0.73 -0.22,-0.88 C 227.36,658 226.71,658 226.49,658 z"
         id="path6696" /><path
         style="fill:#000000;stroke-width:0"
         inkscape:connector-curvature="0"
         d="m 230.01,658.01 -0.01,-0.04 -0.01,-0.03 -0.01,-0.03 -0.01,-0.03 -0.01,-0.03 -0.01,-0.03 -0.01,-0.02 -0.01,-0.03 -0.01,-0.02 -0.01,-0.02 -0.01,-0.02 -0.02,-0.02 -0.01,-0.02 -0.02,-0.01 -0.02,-0.02 -0.02,-0.01 -0.02,-0.01 -0.03,-0.01 -0.03,-0.01 -0.03,-0.01 -0.03,-0.01 -0.01,0 -0.02,-0.01 -0.02,0 -0.02,0 -0.02,-0.01 -0.02,0 -0.02,0 -0.03,0 -0.02,-0.01 -0.02,0 -0.03,0 -0.03,0 -0.02,0 -0.03,0 -0.03,0 -0.03,0 -0.03,-0.01 -0.03,0 -0.04,0 -0.03,0 -0.03,0 -0.04,0 c -0.17,0 -0.27,0 -0.27,-0.2 0,-0.11 0.09,-0.11 0.27,-0.11 h 3.55 c 1.57,0 2.75,1.18 2.75,2.15 0,0.72 -0.58,1.29 -1.55,1.4 1.04,0.19 2.08,0.93 2.08,1.87 0,0.73 -0.65,1.37 -1.85,1.37 l -0.13,-0.31 c 0.87,0 1.08,-0.58 1.08,-1.02 0,-0.87 -0.86,-1.82 -2.07,-1.82 h -1.45 l -0.06,-0.22 h 1.88 c 0.95,0 1.14,-0.73 1.14,-1.16 0,-0.98 -0.88,-1.95 -2.06,-1.95 h -1.35 c -0.14,0 -0.16,0 -0.22,0.01 -0.1,0.01 -0.13,0.02 -0.13,0.1 0,0.03 0,0.05 0.05,0.23 l 0.69,2.77 0.06,0.22 0.61,2.46 c 0.09,0.35 0.11,0.38 0.54,0.38 h 1.29 l 0.13,0.31 h -3.34 c -0.19,0 -0.29,0 -0.29,-0.2 0,-0.11 0.09,-0.11 0.28,-0.11 0.02,0 0.21,0 0.38,-0.02 0.18,-0.02 0.27,-0.03 0.27,-0.16 0,-0.04 -0.01,-0.07 -0.04,-0.19 z"
         id="path6698" /><path
         style="fill:#000000;stroke-width:0"
         inkscape:connector-curvature="0"
         d="m 248.35,659.52 0.02,0 0.02,0 0.02,0 0.02,0 0.01,0 0.02,0 0.01,0 0.02,0 0.01,0 0.01,0 0.01,0.01 0.02,0 0.01,0 0.01,0 0,0.01 0.01,0 0.01,0 0.01,0.01 0,0 0.01,0.01 0,0 0.01,0.01 0,0.01 0.01,0.01 0,0.01 0,0.01 0,0.01 0.01,0.01 0,0.01 0,0.01 0,0.01 0,0 0,0.01 0,0.01 c 0,0.09 -0.01,0.1 -0.19,0.22 -1.29,0.77 -1.76,1.89 -1.91,2.27 -0.05,0.12 -0.06,0.14 -0.22,0.14 -0.07,0 -0.19,0 -0.19,-0.11 0,-0.06 0.22,-0.71 0.69,-1.34 0.22,-0.31 0.45,-0.57 0.89,-0.94 h -7.56 c -0.18,0 -0.35,0 -0.35,-0.2 0,-0.2 0.17,-0.2 0.35,-0.2 z"
         id="path6700" /><path
         style="fill:#000000;stroke-width:0"
         inkscape:connector-curvature="0"
         d="m 253.75,658.38 -0.04,-0.06 -0.03,-0.06 -0.04,-0.06 -0.04,-0.05 -0.04,-0.05 -0.03,-0.04 -0.04,-0.05 -0.04,-0.04 -0.03,-0.04 -0.04,-0.04 -0.04,-0.03 -0.04,-0.03 -0.03,-0.03 -0.04,-0.03 -0.04,-0.02 -0.04,-0.03 -0.03,-0.02 -0.04,-0.02 -0.04,-0.02 -0.04,-0.02 -0.04,-0.01 -0.04,-0.01 -0.03,-0.02 -0.04,-0.01 -0.04,-0.01 -0.04,-0.01 -0.04,0 -0.04,-0.01 -0.08,-0.01 -0.08,-0.01 c -0.12,-0.01 -0.21,-0.01 -0.21,-0.2 0,-0.06 0.05,-0.11 0.13,-0.11 0.27,0 0.57,0.04 0.85,0.04 0.33,0 0.68,-0.04 1,-0.04 0.06,0 0.19,0 0.19,0.19 0,0.11 -0.09,0.12 -0.16,0.12 -0.23,0.02 -0.47,0.1 -0.47,0.35 0,0.12 0.06,0.23 0.14,0.37 l 0.76,1.27 h 2.49 l -0.03,0.31 h -2.28 l 1.96,3.28 0.32,-3.28 0.03,-0.31 c 0.02,-0.21 0.16,-1.56 0.16,-1.66 0,-0.3 -0.52,-0.33 -0.71,-0.33 -0.14,0 -0.24,0 -0.24,-0.2 0,-0.11 0.12,-0.11 0.14,-0.11 0.4,0 0.83,0.04 1.24,0.04 0.25,0 0.87,-0.04 1.12,-0.04 0.06,0 0.18,0 0.18,0.2 0,0.11 -0.1,0.11 -0.23,0.11 -0.61,0 -0.61,0.07 -0.64,0.36 l -0.61,6.21 c -0.02,0.2 -0.02,0.24 -0.19,0.24 -0.16,0 -0.2,-0.07 -0.26,-0.17 z"
         id="path6702" /></g>  </g>
  <g
     ns0:preamble=""
     ns0:text="$\\emptyset \\rightharpoonup A+B \\rightharpoonup 2B \\rightharpoonup A$"
     word-spacing="normal"
     letter-spacing="normal"
     font-size-adjust="none"
     font-stretch="normal"
     font-weight="normal"
     font-variant="normal"
     font-style="normal"
     stroke-miterlimit="10.433"
     xml:space="preserve"
     transform="matrix(2,0,0,-2,-221.57143,1388.5714)"
     id="content"
     style="font-style:normal;font-variant:normal;font-weight:normal;font-stretch:normal;letter-spacing:normal;word-spacing:normal;text-anchor:start;fill:none;stroke:#000000;stroke-linecap:butt;stroke-linejoin:miter;stroke-miterlimit:10.43299961;stroke-opacity:1;stroke-dasharray:none;stroke-dashoffset:0"><path
       id="path8643"
       d="m 227.29,664.71 0,0.01 0,0.01 0,0.01 0,0.01 0,0 -0.01,0.01 0,0.01 0,0.01 -0.01,0.01 0,0.01 0,0.01 -0.01,0.01 0,0 -0.01,0.01 -0.01,0.01 0,0.01 -0.01,0 -0.01,0.01 0,0 -0.01,0.01 -0.01,0.01 -0.01,0 -0.01,0 -0.01,0.01 0,0 -0.01,0.01 -0.01,0 -0.01,0 -0.01,0 -0.01,0 -0.02,0 -0.01,0 c -0.15,0 -0.18,-0.11 -0.24,-0.31 -0.11,-0.4 -0.01,-0.05 -0.12,-0.45 -0.12,0.06 -0.44,0.21 -0.81,0.21 v -0.22 c 0.2,0 0.46,-0.06 0.72,-0.28 l -1.74,-5.92 c -0.33,0.69 -0.33,1.91 -0.33,2.85 0,0.81 0,1.49 0.14,2.13 0.19,0.92 0.76,1.22 1.21,1.22 v 0.22 c -0.57,0 -1.21,-0.3 -1.58,-1.07 -0.39,-0.8 -0.44,-1.69 -0.44,-2.62 0,-0.62 0,-2.41 0.86,-3.19 -0.22,-0.76 -0.22,-0.78 -0.22,-0.81 0,-0.11 0.08,-0.2 0.2,-0.2 0.14,0 0.17,0.1 0.23,0.32 0.12,0.39 0.02,0.05 0.13,0.44 0.24,-0.12 0.54,-0.2 0.81,-0.2 v 0.21 c -0.23,0 -0.47,0.08 -0.71,0.29 l 1.73,5.93 c 0.33,-0.57 0.33,-1.73 0.33,-2.67 0,-0.72 0,-1.46 -0.12,-2.12 -0.18,-1.05 -0.7,-1.43 -1.23,-1.43 v -0.21 c 1.11,0 1.55,0.93 1.73,1.41 0.26,0.69 0.29,1.52 0.29,2.23 0,0.74 0,2.39 -0.87,3.21 z"
       inkscape:connector-curvature="0"
       style="fill:#000000;stroke-width:0" /><path
       id="path8645"
       d="m 240.29,659.52 0.02,0 0.02,0 0.02,0 0.02,0 0.02,0 0.01,0 0.02,0 0.01,0 0.01,0 0.02,0 0.01,0.01 0.01,0 0.01,0 0.01,0 0.01,0.01 0.01,0 0,0 0.01,0.01 0.01,0 0,0.01 0.01,0 0,0.01 0.01,0.01 0,0.01 0,0.01 0.01,0.01 0,0.01 0,0.01 0,0.01 0,0.01 0,0.01 0,0 0,0.01 0,0.01 c 0,0.09 -0.01,0.1 -0.19,0.22 -1.29,0.77 -1.76,1.89 -1.91,2.27 -0.05,0.12 -0.06,0.14 -0.21,0.14 -0.08,0 -0.19,0 -0.19,-0.11 0,-0.06 0.22,-0.71 0.68,-1.34 0.22,-0.31 0.45,-0.57 0.9,-0.94 h -7.56 c -0.18,0 -0.36,0 -0.36,-0.2 0,-0.2 0.18,-0.2 0.36,-0.2 z"
       inkscape:connector-curvature="0"
       style="fill:#000000;stroke-width:0" /><path
       id="path8647"
       d="m 245.69,658.38 -0.03,-0.06 -0.04,-0.06 -0.04,-0.06 -0.03,-0.05 -0.04,-0.05 -0.04,-0.04 -0.04,-0.05 -0.03,-0.04 -0.04,-0.04 -0.04,-0.04 -0.04,-0.03 -0.03,-0.03 -0.04,-0.03 -0.04,-0.03 -0.04,-0.02 -0.03,-0.03 -0.04,-0.02 -0.04,-0.02 -0.04,-0.02 -0.04,-0.02 -0.03,-0.01 -0.04,-0.01 -0.04,-0.02 -0.04,-0.01 -0.04,-0.01 -0.04,-0.01 -0.04,0 -0.04,-0.01 -0.08,-0.01 -0.08,-0.01 c -0.12,-0.01 -0.21,-0.01 -0.21,-0.2 0,-0.06 0.05,-0.11 0.13,-0.11 0.27,0 0.58,0.04 0.86,0.04 0.32,0 0.67,-0.04 0.99,-0.04 0.06,0 0.19,0 0.19,0.19 0,0.11 -0.09,0.12 -0.16,0.12 -0.23,0.02 -0.47,0.1 -0.47,0.35 0,0.12 0.06,0.23 0.14,0.37 l 0.76,1.27 h 2.5 l -0.03,0.31 h -2.28 l 1.96,3.28 0.32,-3.28 0.03,-0.31 c 0.02,-0.21 0.15,-1.56 0.15,-1.66 0,-0.3 -0.51,-0.33 -0.71,-0.33 -0.14,0 -0.24,0 -0.24,-0.2 0,-0.11 0.12,-0.11 0.14,-0.11 0.41,0 0.84,0.04 1.24,0.04 0.25,0 0.88,-0.04 1.13,-0.04 0.06,0 0.18,0 0.18,0.2 0,0.11 -0.1,0.11 -0.23,0.11 -0.62,0 -0.62,0.07 -0.65,0.36 l -0.61,6.21 c -0.02,0.2 -0.02,0.24 -0.19,0.24 -0.15,0 -0.19,-0.07 -0.25,-0.17 z"
       inkscape:connector-curvature="0"
       style="fill:#000000;stroke-width:0" /><path
       id="path8649"
       d="m 257.67,659.52 h 2.77 c 0.14,0 0.33,0 0.33,0.2 0,0.2 -0.19,0.2 -0.33,0.2 h -2.77 v 2.78 c 0,0.14 0,0.33 -0.2,0.33 -0.2,0 -0.2,-0.19 -0.2,-0.33 v -2.78 h -2.79 c -0.14,0 -0.33,0 -0.33,-0.2 0,-0.2 0.19,-0.2 0.33,-0.2 h 2.79 v -2.78 c 0,-0.14 0,-0.33 0.2,-0.33 0.2,0 0.2,0.19 0.2,0.33 z"
       inkscape:connector-curvature="0"
       style="fill:#000000;stroke-width:0" /><path
       id="path8651"
       d="m 265.15,658.01 -0.01,-0.04 -0.01,-0.03 -0.01,-0.03 0,-0.03 -0.01,-0.03 -0.01,-0.03 -0.01,-0.02 -0.01,-0.03 -0.01,-0.02 -0.02,-0.02 -0.01,-0.02 -0.01,-0.02 -0.02,-0.02 -0.02,-0.01 -0.01,-0.02 -0.02,-0.01 -0.03,-0.01 -0.02,-0.01 -0.03,-0.01 -0.03,-0.01 -0.03,-0.01 -0.02,0 -0.02,-0.01 -0.02,0 -0.01,0 -0.02,-0.01 -0.03,0 -0.02,0 -0.02,0 -0.02,-0.01 -0.03,0 -0.02,0 -0.03,0 -0.03,0 -0.02,0 -0.03,0 -0.03,0 -0.03,-0.01 -0.04,0 -0.03,0 -0.03,0 -0.04,0 -0.04,0 c -0.16,0 -0.26,0 -0.26,-0.2 0,-0.11 0.09,-0.11 0.26,-0.11 h 3.56 c 1.57,0 2.74,1.18 2.74,2.15 0,0.72 -0.57,1.29 -1.54,1.4 1.04,0.19 2.08,0.93 2.08,1.87 0,0.73 -0.66,1.37 -1.85,1.37 l -0.14,-0.31 c 0.88,0 1.08,-0.58 1.08,-1.02 0,-0.87 -0.85,-1.82 -2.06,-1.82 h -1.46 l -0.06,-0.22 h 1.88 c 0.96,0 1.15,-0.73 1.15,-1.16 0,-0.98 -0.89,-1.95 -2.06,-1.95 h -1.36 c -0.13,0 -0.15,0 -0.21,0.01 -0.1,0.01 -0.13,0.02 -0.13,0.1 0,0.03 0,0.05 0.05,0.23 l 0.68,2.77 0.06,0.22 0.62,2.46 c 0.09,0.35 0.11,0.38 0.54,0.38 h 1.28 l 0.14,0.31 h -3.34 c -0.19,0 -0.29,0 -0.29,-0.2 0,-0.11 0.09,-0.11 0.28,-0.11 0.02,0 0.21,0 0.38,-0.02 0.17,-0.02 0.26,-0.03 0.26,-0.16 0,-0.04 -0.01,-0.07 -0.04,-0.19 z"
       inkscape:connector-curvature="0"
       style="fill:#000000;stroke-width:0" /><path
       id="path8653"
       d="m 283.5,659.52 0.02,0 0.02,0 0.01,0 0.02,0 0.02,0 0.01,0 0.02,0 0.01,0 0.02,0 0.01,0 0.01,0.01 0.01,0 0.01,0 0.01,0 0.01,0.01 0.01,0 0.01,0 0,0.01 0.01,0 0,0.01 0.01,0 0,0.01 0.01,0.01 0,0.01 0.01,0.01 0,0.01 0,0.01 0,0.01 0,0.01 0,0.01 0,0.01 0,0 0,0.01 0,0.01 c 0,0.09 0,0.1 -0.18,0.22 -1.3,0.77 -1.76,1.89 -1.91,2.27 -0.05,0.12 -0.06,0.14 -0.22,0.14 -0.07,0 -0.19,0 -0.19,-0.11 0,-0.06 0.22,-0.71 0.68,-1.34 0.22,-0.31 0.45,-0.57 0.9,-0.94 h -7.56 c -0.18,0 -0.36,0 -0.36,-0.2 0,-0.2 0.18,-0.2 0.36,-0.2 z"
       inkscape:connector-curvature="0"
       style="fill:#000000;stroke-width:0" /><path
       id="path8655"
       d="m 288.38,658 1.05,1.02 c 1.55,1.37 2.15,1.91 2.15,2.9 0,1.14 -0.9,1.93 -2.11,1.93 -1.12,0 -1.86,-0.91 -1.86,-1.8 0,-0.55 0.5,-0.55 0.53,-0.55 0.17,0 0.51,0.12 0.51,0.52 0,0.26 -0.17,0.52 -0.52,0.52 -0.08,0 -0.1,0 -0.13,-0.01 0.23,0.64 0.77,1.01 1.34,1.01 0.91,0 1.33,-0.8 1.33,-1.62 0,-0.79 -0.49,-1.58 -1.04,-2.19 l -1.91,-2.13 c -0.11,-0.11 -0.11,-0.13 -0.11,-0.37 h 3.69 l 0.28,1.73 h -0.25 c -0.05,-0.3 -0.12,-0.73 -0.22,-0.88 C 291.04,658 290.39,658 290.17,658 z"
       inkscape:connector-curvature="0"
       style="fill:#000000;stroke-width:0" /><path
       id="path8657"
       d="m 293.69,658.01 -0.01,-0.04 -0.01,-0.03 -0.01,-0.03 -0.01,-0.03 -0.01,-0.03 -0.01,-0.03 -0.01,-0.02 -0.01,-0.03 -0.01,-0.02 -0.01,-0.02 -0.01,-0.02 -0.02,-0.02 -0.01,-0.02 -0.02,-0.01 -0.02,-0.02 -0.02,-0.01 -0.02,-0.01 -0.03,-0.01 -0.02,-0.01 -0.03,-0.01 -0.04,-0.01 -0.01,0 -0.02,-0.01 -0.02,0 -0.02,0 -0.02,-0.01 -0.02,0 -0.02,0 -0.02,0 -0.03,-0.01 -0.02,0 -0.03,0 -0.02,0 -0.03,0 -0.03,0 -0.03,0 -0.03,0 -0.03,-0.01 -0.03,0 -0.03,0 -0.04,0 -0.03,0 -0.04,0 c -0.17,0 -0.27,0 -0.27,-0.2 0,-0.11 0.09,-0.11 0.27,-0.11 h 3.55 c 1.57,0 2.75,1.18 2.75,2.15 0,0.72 -0.58,1.29 -1.54,1.4 1.03,0.19 2.08,0.93 2.08,1.87 0,0.73 -0.66,1.37 -1.85,1.37 l -0.14,-0.31 c 0.87,0 1.08,-0.58 1.08,-1.02 0,-0.87 -0.85,-1.82 -2.07,-1.82 h -1.45 l -0.06,-0.22 h 1.88 c 0.95,0 1.14,-0.73 1.14,-1.16 0,-0.98 -0.88,-1.95 -2.05,-1.95 h -1.36 c -0.14,0 -0.16,0 -0.22,0.01 -0.1,0.01 -0.13,0.02 -0.13,0.1 0,0.03 0,0.05 0.05,0.23 l 0.69,2.77 0.06,0.22 0.62,2.46 c 0.09,0.35 0.11,0.38 0.53,0.38 h 1.29 l 0.14,0.31 h -3.35 c -0.19,0 -0.28,0 -0.28,-0.2 0,-0.11 0.08,-0.11 0.27,-0.11 0.02,0 0.21,0 0.38,-0.02 0.18,-0.02 0.27,-0.03 0.27,-0.16 0,-0.04 -0.01,-0.07 -0.04,-0.19 z"
       inkscape:connector-curvature="0"
       style="fill:#000000;stroke-width:0" /><path
       id="path8659"
       d="m 312.03,659.52 0.02,0 0.02,0 0.02,0 0.02,0 0.01,0 0.02,0 0.01,0 0.02,0 0.01,0 0.01,0 0.02,0.01 0.01,0 0.01,0 0.01,0 0.01,0.01 0,0 0.01,0 0.01,0.01 0.01,0 0,0.01 0.01,0 0,0.01 0,0.01 0.01,0.01 0,0.01 0,0.01 0.01,0.01 0,0.01 0,0.01 0,0.01 0,0.01 0,0 0,0.01 0,0.01 c 0,0.09 -0.01,0.1 -0.19,0.22 -1.29,0.77 -1.76,1.89 -1.91,2.27 -0.05,0.12 -0.06,0.14 -0.22,0.14 -0.07,0 -0.19,0 -0.19,-0.11 0,-0.06 0.22,-0.71 0.69,-1.34 0.22,-0.31 0.45,-0.57 0.9,-0.94 h -7.56 c -0.18,0 -0.36,0 -0.36,-0.2 0,-0.2 0.18,-0.2 0.36,-0.2 z"
       inkscape:connector-curvature="0"
       style="fill:#000000;stroke-width:0" /><path
       id="path8661"
       d="m 317.43,658.38 -0.04,-0.06 -0.03,-0.06 -0.04,-0.06 -0.04,-0.05 -0.03,-0.05 -0.04,-0.04 -0.04,-0.05 -0.04,-0.04 -0.03,-0.04 -0.04,-0.04 -0.04,-0.03 -0.03,-0.03 -0.04,-0.03 -0.04,-0.03 -0.04,-0.02 -0.03,-0.03 -0.04,-0.02 -0.04,-0.02 -0.04,-0.02 -0.04,-0.02 -0.04,-0.01 -0.03,-0.01 -0.04,-0.02 -0.04,-0.01 -0.04,-0.01 -0.04,-0.01 -0.04,0 -0.04,-0.01 -0.08,-0.01 -0.08,-0.01 c -0.12,-0.01 -0.21,-0.01 -0.21,-0.2 0,-0.06 0.05,-0.11 0.13,-0.11 0.27,0 0.58,0.04 0.85,0.04 0.33,0 0.68,-0.04 1,-0.04 0.06,0 0.19,0 0.19,0.19 0,0.11 -0.09,0.12 -0.16,0.12 -0.23,0.02 -0.47,0.1 -0.47,0.35 0,0.12 0.06,0.23 0.14,0.37 l 0.76,1.27 h 2.49 l -0.03,0.31 h -2.27 l 1.96,3.28 0.31,-3.28 0.03,-0.31 c 0.02,-0.21 0.16,-1.56 0.16,-1.66 0,-0.3 -0.51,-0.33 -0.71,-0.33 -0.14,0 -0.24,0 -0.24,-0.2 0,-0.11 0.12,-0.11 0.14,-0.11 0.41,0 0.83,0.04 1.24,0.04 0.25,0 0.88,-0.04 1.13,-0.04 0.06,0 0.18,0 0.18,0.2 0,0.11 -0.1,0.11 -0.23,0.11 -0.62,0 -0.62,0.07 -0.65,0.36 l -0.61,6.21 c -0.02,0.2 -0.02,0.24 -0.19,0.24 -0.16,0 -0.2,-0.07 -0.26,-0.17 z"
       inkscape:connector-curvature="0"
       style="fill:#000000;stroke-width:0" /></g></svg>
